<mxfile host="Electron" modified="2025-02-11T20:10:50.895Z" agent="Mozilla/5.0 (X11; Linux x86_64) AppleWebKit/537.36 (KHTML, like Gecko) draw.io/24.6.1 Chrome/124.0.6367.207 Electron/30.0.6 Safari/537.36" etag="80E-y2V6SMT_dKnBKcAI" version="24.6.1" type="device">
  <diagram id="NSa18aZEY6gylXyAxlEX" name="Page-1">
    <mxGraphModel dx="2074" dy="2143" grid="1" gridSize="10" guides="1" tooltips="1" connect="1" arrows="1" fold="1" page="1" pageScale="1" pageWidth="1600" pageHeight="900" math="0" shadow="0">
      <root>
        <mxCell id="0" />
        <mxCell id="1" parent="0" />
        <mxCell id="Y9yN1bhmZpT2N5PvJ_w0-34" value="" style="rounded=0;whiteSpace=wrap;html=1;" parent="1" vertex="1">
          <mxGeometry x="130" y="-90" width="1790" height="1160" as="geometry" />
        </mxCell>
        <mxCell id="Y9yN1bhmZpT2N5PvJ_w0-8" style="edgeStyle=orthogonalEdgeStyle;rounded=0;orthogonalLoop=1;jettySize=auto;html=1;exitX=1;exitY=0.5;exitDx=0;exitDy=0;entryX=0;entryY=0.25;entryDx=0;entryDy=0;" parent="1" source="Y9yN1bhmZpT2N5PvJ_w0-1" target="Y9yN1bhmZpT2N5PvJ_w0-7" edge="1">
          <mxGeometry relative="1" as="geometry" />
        </mxCell>
        <mxCell id="Y9yN1bhmZpT2N5PvJ_w0-1" value="Portable DUT" style="rounded=1;whiteSpace=wrap;html=1;" parent="1" vertex="1">
          <mxGeometry x="350" y="70" width="120" height="60" as="geometry" />
        </mxCell>
        <mxCell id="Y9yN1bhmZpT2N5PvJ_w0-13" style="edgeStyle=orthogonalEdgeStyle;rounded=0;orthogonalLoop=1;jettySize=auto;html=1;exitX=1;exitY=0.5;exitDx=0;exitDy=0;entryX=0;entryY=0.5;entryDx=0;entryDy=0;" parent="1" source="Y9yN1bhmZpT2N5PvJ_w0-2" target="Y9yN1bhmZpT2N5PvJ_w0-12" edge="1">
          <mxGeometry relative="1" as="geometry" />
        </mxCell>
        <mxCell id="Y9yN1bhmZpT2N5PvJ_w0-2" value="Rack DUT" style="rounded=1;whiteSpace=wrap;html=1;" parent="1" vertex="1">
          <mxGeometry x="350" y="400" width="120" height="60" as="geometry" />
        </mxCell>
        <mxCell id="Y9yN1bhmZpT2N5PvJ_w0-10" style="edgeStyle=orthogonalEdgeStyle;rounded=0;orthogonalLoop=1;jettySize=auto;html=1;exitX=1;exitY=0.5;exitDx=0;exitDy=0;entryX=0.005;entryY=0.471;entryDx=0;entryDy=0;entryPerimeter=0;" parent="1" source="Y9yN1bhmZpT2N5PvJ_w0-3" target="Y9yN1bhmZpT2N5PvJ_w0-21" edge="1">
          <mxGeometry relative="1" as="geometry">
            <mxPoint x="690" y="840" as="targetPoint" />
          </mxGeometry>
        </mxCell>
        <mxCell id="Y9yN1bhmZpT2N5PvJ_w0-3" value="RF SoC" style="rounded=1;whiteSpace=wrap;html=1;" parent="1" vertex="1">
          <mxGeometry x="350" y="810" width="120" height="60" as="geometry" />
        </mxCell>
        <mxCell id="Y9yN1bhmZpT2N5PvJ_w0-7" value="Proton Pack #1" style="rounded=1;whiteSpace=wrap;html=1;" parent="1" vertex="1">
          <mxGeometry x="680" y="60" width="490" height="310" as="geometry" />
        </mxCell>
        <mxCell id="Y9yN1bhmZpT2N5PvJ_w0-12" value="Proton Pack #2" style="rounded=1;whiteSpace=wrap;html=1;" parent="1" vertex="1">
          <mxGeometry x="690" y="400" width="490" height="310" as="geometry" />
        </mxCell>
        <mxCell id="Y9yN1bhmZpT2N5PvJ_w0-14" value="Lab/User Analysis PC" style="rounded=1;whiteSpace=wrap;html=1;" parent="1" vertex="1">
          <mxGeometry x="1380" y="780" width="320" height="270" as="geometry" />
        </mxCell>
        <mxCell id="Y9yN1bhmZpT2N5PvJ_w0-16" style="edgeStyle=orthogonalEdgeStyle;rounded=0;orthogonalLoop=1;jettySize=auto;html=1;exitX=0;exitY=0.25;exitDx=0;exitDy=0;entryX=1;entryY=0.5;entryDx=0;entryDy=0;startArrow=classic;startFill=1;" parent="1" source="Y9yN1bhmZpT2N5PvJ_w0-15" target="Y9yN1bhmZpT2N5PvJ_w0-7" edge="1">
          <mxGeometry relative="1" as="geometry" />
        </mxCell>
        <mxCell id="Y9yN1bhmZpT2N5PvJ_w0-17" style="edgeStyle=orthogonalEdgeStyle;rounded=0;orthogonalLoop=1;jettySize=auto;html=1;exitX=0;exitY=0.5;exitDx=0;exitDy=0;startArrow=classic;startFill=1;" parent="1" source="Y9yN1bhmZpT2N5PvJ_w0-15" target="Y9yN1bhmZpT2N5PvJ_w0-12" edge="1">
          <mxGeometry relative="1" as="geometry" />
        </mxCell>
        <mxCell id="Y9yN1bhmZpT2N5PvJ_w0-19" style="edgeStyle=orthogonalEdgeStyle;rounded=0;orthogonalLoop=1;jettySize=auto;html=1;exitX=0;exitY=0.75;exitDx=0;exitDy=0;entryX=1;entryY=0.5;entryDx=0;entryDy=0;startArrow=classic;startFill=1;" parent="1" source="Y9yN1bhmZpT2N5PvJ_w0-15" target="Y9yN1bhmZpT2N5PvJ_w0-18" edge="1">
          <mxGeometry relative="1" as="geometry" />
        </mxCell>
        <mxCell id="Y9yN1bhmZpT2N5PvJ_w0-20" style="edgeStyle=orthogonalEdgeStyle;rounded=0;orthogonalLoop=1;jettySize=auto;html=1;entryX=0.25;entryY=0;entryDx=0;entryDy=0;" parent="1" source="Y9yN1bhmZpT2N5PvJ_w0-15" target="Y9yN1bhmZpT2N5PvJ_w0-14" edge="1">
          <mxGeometry relative="1" as="geometry" />
        </mxCell>
        <mxCell id="Y9yN1bhmZpT2N5PvJ_w0-15" value="USB Hub" style="rounded=1;whiteSpace=wrap;html=1;" parent="1" vertex="1">
          <mxGeometry x="1400" y="420" width="120" height="270" as="geometry" />
        </mxCell>
        <mxCell id="Y9yN1bhmZpT2N5PvJ_w0-18" value="Proton Pack #3" style="rounded=1;whiteSpace=wrap;html=1;" parent="1" vertex="1">
          <mxGeometry x="690" y="750" width="490" height="310" as="geometry" />
        </mxCell>
        <mxCell id="Y9yN1bhmZpT2N5PvJ_w0-21" value="Ethernet" style="text;html=1;align=center;verticalAlign=middle;resizable=0;points=[];autosize=1;strokeColor=none;fillColor=none;" parent="1" vertex="1">
          <mxGeometry x="690" y="895" width="60" height="20" as="geometry" />
        </mxCell>
        <mxCell id="Y9yN1bhmZpT2N5PvJ_w0-22" value="USB" style="text;html=1;align=center;verticalAlign=middle;resizable=0;points=[];autosize=1;strokeColor=none;fillColor=none;" parent="1" vertex="1">
          <mxGeometry x="1130" y="895" width="40" height="20" as="geometry" />
        </mxCell>
        <mxCell id="Y9yN1bhmZpT2N5PvJ_w0-23" value="USB" style="text;html=1;align=center;verticalAlign=middle;resizable=0;points=[];autosize=1;strokeColor=none;fillColor=none;" parent="1" vertex="1">
          <mxGeometry x="1140" y="545" width="40" height="20" as="geometry" />
        </mxCell>
        <mxCell id="Y9yN1bhmZpT2N5PvJ_w0-24" value="Ethernet" style="text;html=1;align=center;verticalAlign=middle;resizable=0;points=[];autosize=1;strokeColor=none;fillColor=none;" parent="1" vertex="1">
          <mxGeometry x="690" y="545" width="60" height="20" as="geometry" />
        </mxCell>
        <mxCell id="Y9yN1bhmZpT2N5PvJ_w0-25" value="USB" style="text;html=1;align=center;verticalAlign=middle;resizable=0;points=[];autosize=1;strokeColor=none;fillColor=none;" parent="1" vertex="1">
          <mxGeometry x="1130" y="205" width="40" height="20" as="geometry" />
        </mxCell>
        <mxCell id="Y9yN1bhmZpT2N5PvJ_w0-26" value="Serial Coax" style="text;html=1;align=center;verticalAlign=middle;resizable=0;points=[];autosize=1;strokeColor=none;fillColor=none;" parent="1" vertex="1">
          <mxGeometry x="680" y="130" width="80" height="20" as="geometry" />
        </mxCell>
        <mxCell id="Y9yN1bhmZpT2N5PvJ_w0-27" value="Serial Coax" style="text;html=1;align=center;verticalAlign=middle;resizable=0;points=[];autosize=1;strokeColor=none;fillColor=none;" parent="1" vertex="1">
          <mxGeometry x="690" y="470" width="80" height="20" as="geometry" />
        </mxCell>
        <mxCell id="Y9yN1bhmZpT2N5PvJ_w0-28" value="Serial Coax" style="text;html=1;align=center;verticalAlign=middle;resizable=0;points=[];autosize=1;strokeColor=none;fillColor=none;" parent="1" vertex="1">
          <mxGeometry x="690" y="830" width="80" height="20" as="geometry" />
        </mxCell>
        <mxCell id="Y9yN1bhmZpT2N5PvJ_w0-29" value="Ethernet" style="text;html=1;align=center;verticalAlign=middle;resizable=0;points=[];autosize=1;strokeColor=none;fillColor=none;" parent="1" vertex="1">
          <mxGeometry x="680" y="205" width="60" height="20" as="geometry" />
        </mxCell>
        <mxCell id="Y9yN1bhmZpT2N5PvJ_w0-30" value="SFTP" style="text;html=1;align=center;verticalAlign=middle;resizable=0;points=[];autosize=1;strokeColor=none;fillColor=none;" parent="1" vertex="1">
          <mxGeometry x="550" y="810" width="50" height="20" as="geometry" />
        </mxCell>
        <mxCell id="Y9yN1bhmZpT2N5PvJ_w0-31" value="Ethernet Telemetry" style="text;html=1;align=center;verticalAlign=middle;resizable=0;points=[];autosize=1;strokeColor=none;fillColor=none;" parent="1" vertex="1">
          <mxGeometry x="530" y="400" width="120" height="20" as="geometry" />
        </mxCell>
        <mxCell id="Y9yN1bhmZpT2N5PvJ_w0-32" value="Serial Telemetry" style="text;html=1;align=center;verticalAlign=middle;resizable=0;points=[];autosize=1;strokeColor=none;fillColor=none;" parent="1" vertex="1">
          <mxGeometry x="515" y="65" width="110" height="30" as="geometry" />
        </mxCell>
        <mxCell id="l2gbXbGXfHQtzycVI8A9-1" value="Proton Pack #1" style="rounded=1;whiteSpace=wrap;html=1;" vertex="1" parent="1">
          <mxGeometry x="1240" y="-182" width="490" height="310" as="geometry" />
        </mxCell>
        <mxCell id="l2gbXbGXfHQtzycVI8A9-2" value="Proton Pack #1" style="rounded=1;whiteSpace=wrap;html=1;" vertex="1" parent="1">
          <mxGeometry x="1140" y="-440" width="490" height="310" as="geometry" />
        </mxCell>
        <mxCell id="l2gbXbGXfHQtzycVI8A9-3" value="Portable DUT" style="rounded=1;whiteSpace=wrap;html=1;" vertex="1" parent="1">
          <mxGeometry x="360" y="60" width="120" height="60" as="geometry" />
        </mxCell>
        <mxCell id="l2gbXbGXfHQtzycVI8A9-4" value="Portable DUT" style="rounded=1;whiteSpace=wrap;html=1;" vertex="1" parent="1">
          <mxGeometry x="370" y="50" width="120" height="60" as="geometry" />
        </mxCell>
        <mxCell id="l2gbXbGXfHQtzycVI8A9-5" value="Dante Recorder (AP)" style="rounded=1;whiteSpace=wrap;html=1;" vertex="1" parent="1">
          <mxGeometry x="810" y="-390" width="280" height="90" as="geometry" />
        </mxCell>
        <mxCell id="l2gbXbGXfHQtzycVI8A9-6" value="Regression Test Tie-Ins" style="text;html=1;align=center;verticalAlign=middle;resizable=0;points=[];autosize=1;strokeColor=none;fillColor=none;" vertex="1" parent="1">
          <mxGeometry x="810" y="-440" width="150" height="30" as="geometry" />
        </mxCell>
        <mxCell id="l2gbXbGXfHQtzycVI8A9-7" style="edgeStyle=orthogonalEdgeStyle;rounded=0;orthogonalLoop=1;jettySize=auto;html=1;exitX=1;exitY=0.5;exitDx=0;exitDy=0;entryX=0;entryY=0.25;entryDx=0;entryDy=0;" edge="1" parent="1" target="l2gbXbGXfHQtzycVI8A9-9">
          <mxGeometry relative="1" as="geometry">
            <mxPoint x="450" y="-140" as="sourcePoint" />
            <mxPoint x="660" y="-102" as="targetPoint" />
          </mxGeometry>
        </mxCell>
        <mxCell id="l2gbXbGXfHQtzycVI8A9-8" value="Headphone Out" style="text;html=1;align=center;verticalAlign=middle;resizable=0;points=[];autosize=1;strokeColor=none;fillColor=none;" vertex="1" parent="1">
          <mxGeometry x="495" y="-182" width="110" height="30" as="geometry" />
        </mxCell>
        <mxCell id="l2gbXbGXfHQtzycVI8A9-9" value="Headphones" style="rounded=1;whiteSpace=wrap;html=1;" vertex="1" parent="1">
          <mxGeometry x="820" y="-220" width="120" height="60" as="geometry" />
        </mxCell>
        <mxCell id="l2gbXbGXfHQtzycVI8A9-11" style="edgeStyle=orthogonalEdgeStyle;rounded=0;orthogonalLoop=1;jettySize=auto;html=1;entryX=-0.004;entryY=0.665;entryDx=0;entryDy=0;entryPerimeter=0;" edge="1" parent="1" target="Y9yN1bhmZpT2N5PvJ_w0-7">
          <mxGeometry relative="1" as="geometry">
            <mxPoint x="460" y="-160" as="sourcePoint" />
            <mxPoint x="809" y="-220" as="targetPoint" />
            <Array as="points">
              <mxPoint x="460" y="50" />
              <mxPoint x="449" y="50" />
              <mxPoint x="449" y="-134" />
              <mxPoint x="640" y="-134" />
              <mxPoint x="640" y="266" />
            </Array>
          </mxGeometry>
        </mxCell>
        <mxCell id="l2gbXbGXfHQtzycVI8A9-12" value="Stereo Audio" style="text;html=1;align=center;verticalAlign=middle;resizable=0;points=[];autosize=1;strokeColor=none;fillColor=none;" vertex="1" parent="1">
          <mxGeometry x="680" y="255" width="90" height="30" as="geometry" />
        </mxCell>
        <mxCell id="l2gbXbGXfHQtzycVI8A9-13" value="For Walk Test" style="text;html=1;align=center;verticalAlign=middle;resizable=0;points=[];autosize=1;strokeColor=none;fillColor=none;" vertex="1" parent="1">
          <mxGeometry x="820" y="-260" width="100" height="30" as="geometry" />
        </mxCell>
      </root>
    </mxGraphModel>
  </diagram>
</mxfile>
